<?xml version="1.0" encoding="UTF-8"?>
<!--
  - Copyright (c) 2020 - 2022. Kassenärztliche Bundesvereinigung, KBV
  -
  - This file is part of MIO Viewer.
  -
  - MIO Viewer is free software: you can redistribute it and/or modify
  - it under the terms of the GNU Lesser General Public License as published by
  - the Free Software Foundation version 3 of the License only.
  -
  - MIO Viewer is distributed in the hope that it will be useful,
  - but WITHOUT ANY WARRANTY; without even the implied warranty of
  - MERCHANTABILITY or FITNESS FOR A PARTICULAR PURPOSE. See the
  - GNU Lesser General Public License for more details.
  -
  - You should have received a copy of the GNU Lesser General Public License
  - along with MIO Viewer. If not, see https://www.gnu.org/licenses/.
  -->

<svg width="108px" height="45px" viewBox="0 0 108 45" version="1.1" xmlns="http://www.w3.org/2000/svg" xmlns:xlink="http://www.w3.org/1999/xlink">
    <title>Group</title>
    <defs>
        <filter id="filter-1">
            <feColorMatrix in="SourceGraphic" type="matrix" values="0 0 0 0 0.764706 0 0 0 0 0.807843 0 0 0 0 0.823529 0 0 0 1.000000 0"></feColorMatrix>
        </filter>
    </defs>
    <g id="MIO---UI---ALLGEMEIN" stroke="none" stroke-width="1" fill="none" fill-rule="evenodd">
        <g id="Mobile---Startscreen" transform="translate(-135.000000, -605.000000)">
            <g id="Group" transform="translate(135.000000, 605.000000)">
                <g id="Marke" fill-rule="nonzero">
                    <rect id="Rectangle" fill="#FFFFFF" x="0" y="0" width="45" height="45"></rect>
                    <rect id="Rectangle" fill="#C3CED2" x="6" y="5" width="34" height="34"></rect>
                    <path d="M11.8033333,31.6690265 C11.8033333,32.3238938 11.6533333,32.4973451 11,32.5079646 L11,33 L14,33 L14,32.5079646 C13.3333333,32.5079646 13.1966667,32.3238938 13.1966667,31.6690265 L13.1966667,26.3380531 C13.1966667,25.679646 13.3466667,25.4955752 14,25.4849558 L14,25 L11,25 L11,25.4849558 C11.6666667,25.4849558 11.8033333,25.679646 11.8033333,26.3380531 L11.8033333,31.6690265 Z" id="Path" fill="#FFFFFF"></path>
                    <path d="M16.2385035,26.4580931 C16.8971161,25.7485588 17.1893998,25.5427938 17.7622759,25.475388 L17.7622759,25 L14.9914263,25 L14.9914263,25.475388 C15.381138,25.475388 15.6032736,25.5995565 15.6032736,25.8088692 C15.5801727,25.9709744 15.4994177,26.1217401 15.3733437,26.2381375 L13,28.9201774 L15.7279813,33 L18,33 L18,32.524612 C17.5426832,32.553293 17.1116328,32.3276635 16.9088075,31.9534368 L14.4341387,28.405765 L16.2385035,26.4580931 Z" id="Path" fill="#FFFFFF"></path>
                    <path d="M23.9510337,27.1425409 C23.9510337,28.1589199 23.5930359,28.5378486 22.5114255,28.5378486 L21.5174102,28.5378486 L21.5174102,25.7047366 L22.4619151,25.7047366 C23.5435256,25.7047366 23.9510337,26.0588756 23.9510337,27.1460823 M21.5174102,29.2248783 L22.6599565,29.2248783 C23.9129489,29.2248783 24.3090316,29.6498451 24.3090316,30.747676 C24.3090316,31.8455069 23.9281828,32.3058876 22.7589771,32.3058876 L21.5021763,32.3058876 L21.5174102,29.2248783 Z M25.6153428,27.043382 C25.6153428,25.6799469 24.5718172,25 22.5990207,25 L19,25 L19,25.4851704 C19.7616975,25.4851704 19.9178455,25.6799469 19.9178455,26.3386454 L19.9178455,31.6684374 C19.9178455,32.3235945 19.7464635,32.4971226 19,32.5077468 L19,33 L23.0331882,33 C24.8460283,33 26,32.291722 26,30.875166 C26,29.812749 25.3411317,29.0301018 23.9015234,28.8565737 L23.9015234,28.8105356 C25.0440696,28.5803453 25.6153428,28.0278884 25.6153428,27.0398406" id="Shape" fill="#FFFFFF"></path>
                    <path d="M31.6730402,33 L34.0057361,26.3557522 C34.2428298,25.6761062 34.4416826,25.559292 35,25.4920354 L35,25 L32.2848948,25 L32.2848948,25.4743363 C32.8470363,25.4743363 33.0956023,25.6017699 33.0956023,25.899115 C33.0928307,26.0191473 33.0722428,26.1382568 33.0344168,26.2530973 L31.8604207,29.8318584 C31.6386233,30.539823 31.4244742,31.3327434 31.3518164,31.6902655 L31.2600382,31.6902655 C31.1606119,31.2619469 30.9617591,30.4336283 30.7743786,29.8566372 L29.6195029,26.2353982 C29.5830514,26.1383319 29.561177,26.0370906 29.5544933,25.9345133 C29.5544933,25.6230088 29.791587,25.4849558 30.3422562,25.4743363 L30.3422562,25 L27,25 L27,25.4743363 C27.5506692,25.5309735 27.6998088,25.7150442 27.9254302,26.3380531 L30.292543,33 L31.6730402,33 Z" id="Path" fill="#FFFFFF"></path>
                </g>
                <g filter="url(#filter-1)" id="mio42-logo-rgb-sw">
                    <g transform="translate(60.000000, 4.000000)">
                        <path d="M12.66,22.8 L10.74,22.8 L10.74,16.78 C10.78,15.84 10.06,15.06 9.12,15.02 C9.08,15.02 9.04,15.02 8.98,15.02 C7.98,15.02 7.28,15.76 7.28,16.78 L7.28,22.8 L5.36,22.8 L5.36,16.78 C5.36,15.74 4.64,15.02 3.64,15.02 C2.64,15.02 1.94,15.76 1.94,16.78 L1.94,22.8 L0,22.8 L0,16.8 C0,14.74 1.56,13.32 3.62,13.32 C4.82,13.32 5.78,13.82 6.36,14.66 C7,13.78 8.02,13.28 9.1,13.32 C11.18,13.32 12.66,14.74 12.66,16.8 L12.66,22.8 Z" id="Path" fill="#000000" fill-rule="nonzero"></path>
                        <polygon id="Path" fill="#000000" fill-rule="nonzero" points="15.28 22.8 15.28 14.28 17.2 14.28 17.2 22.8"></polygon>
                        <path d="M19.1,18.2 C19.1,15.38 21.16,13.32 23.98,13.32 C26.8,13.32 28.88,15.38 28.88,18.2 C28.88,21.02 26.8,23.08 23.98,23.08 C21.16,23.08 19.1,21 19.1,18.2 Z M26.92,18.18 C26.92,16.32 25.7,15.02 23.98,15.02 C22.26,15.02 21.04,16.34 21.04,18.18 C21.04,20.02 22.26,21.34 23.98,21.34 C25.7,21.34 26.92,20.02 26.92,18.18 L26.92,18.18 Z" id="Shape" fill="#000000" fill-rule="nonzero"></path>
                        <polygon id="Path" fill="#000000" fill-rule="nonzero" points="37.72 21.12 37.72 17.08 35.82 17.08 35.82 21.12 32.4 21.12 34 13.58 32.2 13.58 30.24 22.8 35.82 22.8 35.82 26.72 37.72 26.72 37.72 22.8 39.5 22.8 39.5 21.12"></polygon>
                        <path d="M43.8,21.14 L45.62,19.64 C47.06,18.44 47.76,17.64 47.76,16.28 C47.78,15.44 47.4,14.64 46.74,14.12 C46.08,13.6 45.16,13.32 44.08,13.32 C42.46,13.32 41.16,13.96 40.3,15.2 L40.28,15.24 L41.42,16.4 L41.46,16.36 C42.02,15.5 42.98,15 44,15 C45.12,15 45.86,15.6 45.86,16.52 C45.86,17.46 45.28,17.96 43.7,19.3 L43.2,19.72 L40.56,21.96 L40.56,22.82 L48,22.82 L48,21.16 L43.8,21.14 Z" id="Path" fill="#000000" fill-rule="nonzero"></path>
                        <path d="M23.94,29 C21.1,29 18.36,27.88 16.36,25.88 C16.18,25.7 16.16,25.38 16.36,25.2 C16.54,25.02 16.86,25 17.04,25.2 C20.88,29 27.08,28.98 30.92,25.16 C31.1,24.98 31.42,24.98 31.6,25.16 C31.78,25.34 31.78,25.66 31.6,25.84 L31.6,25.84 C29.56,27.86 26.82,29 23.94,29 Z" id="Path" fill="#000000" fill-rule="nonzero"></path>
                        <path d="M39.16,9.98 C38.98,9.98 38.82,9.88 38.74,9.74 C34.06,1.58 23.64,-1.26 15.48,3.42 C12.86,4.92 10.7,7.08 9.18,9.7 C9.04,9.92 8.76,10 8.52,9.88 C8.3,9.74 8.22,9.46 8.34,9.22 C13.3,0.6 24.3,-2.36 32.92,2.6 C35.68,4.2 37.98,6.5 39.56,9.26 C39.7,9.48 39.62,9.78 39.38,9.92 C39.38,9.92 39.38,9.92 39.38,9.92 C39.32,9.96 39.24,9.98 39.16,9.98 Z" id="Path" fill="#000000" fill-rule="nonzero"></path>
                        <circle id="Oval" fill="#000000" fill-rule="nonzero" cx="23.98" cy="18.16" r="1.68"></circle>
                        <path d="M16.24,12.98 C17.16,12.98 17.92,12.22 17.92,11.3 C17.92,11.04 17.86,10.8 17.76,10.56 C21.68,7.38 27.36,7.68 30.92,11.24 C31.1,11.42 31.42,11.42 31.6,11.24 C31.78,11.06 31.78,10.74 31.6,10.56 L31.6,10.56 C27.68,6.64 21.4,6.32 17.12,9.84 C16.86,9.68 16.56,9.6 16.26,9.6 C15.34,9.6 14.58,10.36 14.58,11.28 C14.58,12.2 15.32,12.98 16.24,12.98 Z" id="Path" fill="#000000" fill-rule="nonzero"></path>
                        <path d="M36.78,28.78 C35.86,28.78 35.1,29.54 35.1,30.46 C35.1,30.64 35.14,30.82 35.2,31 C32.1,33.74 28.1,35.26 23.96,35.24 C17.9,35.22 12.3,32 9.24,26.78 C9.1,26.56 8.82,26.48 8.58,26.6 C8.36,26.74 8.28,27.02 8.4,27.26 C11.64,32.78 17.54,36.18 23.96,36.2 C28.3,36.22 32.5,34.64 35.76,31.78 C36.48,32.36 37.54,32.22 38.12,31.5 C38.7,30.78 38.56,29.72 37.84,29.14 C37.52,28.92 37.16,28.78 36.78,28.78 L36.78,28.78 Z" id="Path" fill="#000000" fill-rule="nonzero"></path>
                    </g>
                </g>
            </g>
        </g>
    </g>
</svg>